<?xml version="1.0" encoding="UTF-8" standalone="no"?>
<svg width="24px" height="14px" viewBox="0 0 24 14" version="1.1" xmlns="http://www.w3.org/2000/svg" xmlns:xlink="http://www.w3.org/1999/xlink">
    <!-- Generator: Sketch 3.7.2 (28276) - http://www.bohemiancoding.com/sketch -->
    <title>Group 11</title>
    <desc>Created with Sketch.</desc>
    <defs></defs>
    <g id="All-projects" stroke="none" stroke-width="1" fill="none" fill-rule="evenodd">
        <g id="Group-11" transform="translate(0.000000, -4.000000)">
            <path d="M0.061876977,11.3712624 C0.103128506,11.4950164 0.185630298,11.598146 0.309384885,11.6806473 L6.24957468,17.6208371 C6.70334182,18.1158553 7.16741321,18.1261683 7.64180864,17.6517756 C8.11620012,17.1773829 8.10588795,16.7133104 7.61086818,16.2595436 L3.40323374,11.9900322 L22.7707276,11.9900322 C23.0594881,11.9900322 23.2966799,11.8972187 23.4823148,11.7115878 C23.6679457,11.5259529 23.7607592,11.2887611 23.7607592,11.0000006 C23.7607592,10.71124 23.6679457,10.4740482 23.4823148,10.2884134 C23.2966799,10.1027824 23.0594881,10.0099689 22.7707276,10.0099689 L3.40323374,10.0099689 L7.61086818,5.74045753 C8.10588795,5.28669039 8.11620012,4.822619 7.64180864,4.34822356 C7.16741321,3.87383208 6.70334182,3.88414425 6.24957468,4.37916403 L0.309384885,10.3193538 C0.185630298,10.4018551 0.103128506,10.5049848 0.061876977,10.6287387 C0.0206254518,10.7524927 -6.25277607e-13,10.8762466 -6.25277607e-13,11.0000006 C-6.25277607e-13,11.1237545 0.0206254518,11.2475085 0.061876977,11.3712624 Z" id="arrow" fill="#5050FF" transform="translate(11.880380, 11.000000) rotate(-180.000000) translate(-11.880380, -11.000000) "></path>
            <rect id="Rectangle-50" x="0" y="0" width="24" height="22"></rect>
        </g>
    </g>
</svg>